<?xml version="1.0" encoding="utf-8"?>
<!-- Generator: Adobe Illustrator 16.0.0, SVG Export Plug-In . SVG Version: 6.00 Build 0)  -->
<!DOCTYPE svg PUBLIC "-//W3C//DTD SVG 1.1//EN" "http://www.w3.org/Graphics/SVG/1.1/DTD/svg11.dtd">
<svg version="1.1" id="Слой_1" xmlns="http://www.w3.org/2000/svg" xmlns:xlink="http://www.w3.org/1999/xlink" x="0px" y="0px"
	 width="226px" height="124px" viewBox="0 0 226 124" enable-background="new 0 0 226 124" xml:space="preserve">
<g>
	<g>
		<path fill-rule="evenodd" clip-rule="evenodd" fill="#B2372D" d="M124.79,114.546c-0.672-2.701-5.202-17.506-10.71-23.168
			c-0.758-0.778,4.602-7.486,10.604-10.059c1.331-0.571-2.714-6.088-3.112-6.971c-0.893-1.981-22.648-37.449-24.013-39.252
			c-0.213-0.279-0.412-0.546-0.809-0.466c-0.398,0.08-0.509,0.396-0.543,0.742c-0.035,0.37,0.003,0.77,0.296,1.001
			c0.708,0.56,20.904,42.025,21.75,43.434c0.521,0.868,0.271,1.346-0.706,1.634c-5.558,1.284-12.65,4.829-14.999,8.023
			c-0.921,1.122-14.429,23.701-14.706,24.039c-1.78,2.178-4.018,3.026-6.887,2.589c-3.122-0.476-3.791-3.851-2.624-5.67
			c1.237-1.929,8.784-18.18,10.031-33.827c-0.016-0.59-0.139-1.14-0.503-1.602c-0.671-0.851-0.897-1.87-0.925-2.868
			c-0.034-1.202-0.464-7.246,4.04-8.97c0.905-0.467,9.498-5.583,6.414-14.154c-0.025-0.11-0.134-0.199-0.189-0.306
			c-0.635-1.222-3.258-4.051-3.757-4.327c-0.188-0.104-0.431,0.06-0.325,0.255c0.394,0.715,1.708,5.984,1.773,6.848
			c0.222,2.96-1.369,4.993-3.523,6.789c-1.594,1.33-3.596,2.119-4.969,3.752c-0.917,1.091-5.375,10.659-7.588,12.541
			c-1.533,1.304-3.201,1.918-5.213,1.656c-0.514-0.066-2.892-7.08-18.722-5.042c-0.405-0.001-0.979,0.017-0.987-0.558
			c-0.008-0.503,0.505-0.63,0.925-0.722c0.567-0.123,6.352-0.865,8.625-0.505c1.511,0.239,8.542,1.866,9.045,1.825
			c0.467-0.037,1.101,0.077,1.163-0.589c0.061-0.669-0.507-0.822-1.056-0.86c-0.516-0.036-7.88-2.909-8.232-3.134
			c-10.091-2.053-16.157,1.401-17.729,2.812c-0.899,0.807-1.983,0.851-2.616,0.058c-0.973-1.222-1.951-2.477-1.886-4.166
			c0.026-0.688,0.01-1.377-0.011-2.064c-0.021-0.702-0.091-1.495-0.711-1.871c-1.107-0.671-8.97-5.202-5.997-13.928
			c0.613-1.799,0.551-1.823,2.348-1.082c0.956,0.395,3.61-0.12,3.146-4.893c-0.228-0.964-0.852-7.896,5.724-11.192
			c15.648-5.373,22.184-3.569,29.604-2.097c2.174,0.431,4.608,2.791,5.709,4.939c0.895,1.747,4.63,6.893,2.011,11.08
			c0.017,0.005,0.034,0.011,0.051,0.017c0.432,0.137,0.706,0.454,0.843,0.886c0.19,0.599,0.405,1.191,0.603,1.788
			c0.4,1.21,1.932,1.578,2.763,0.595c0.618-0.729,1.156-1.536,1.299-2.534c0.254-1.775,0.243-3.577,0.669-5.337
			c0.57-2.357,0.861-4.757,1.007-7.178c0.082-1.341,0.128-2.691,0.448-4.009c0.488-2.012,0.761-4.049,0.911-6.116
			c0.145-2.003,0.049-3.822-1.499-5.408c-1.012-1.038-3.565-2.6-3.652-2.625c-8.929-4.183-12.791-3.632-12.821-3.627
			c-0.512,0.089-0.661,0.095-0.921,0.464c-0.125,0.389,0.3,0.454,0.57,0.562c0.419,0.167,16.491,3.856,15.707,10.521
			c-0.357,0.802-1.707,8.437-1.68,10.035c0.009,0.54,0.013,1.083-0.178,1.597c-0.168,0.449-0.508,0.574-0.825,0.186
			C84.229,24.591,70.172,23.3,68.578,23.234c-1.332-0.055-1.829-0.594-1.491-1.846c0.366-1.35,1.561-8.366,1.575-9.951
			c0.004-0.524,0.233-1.367-0.512-1.424c-0.747-0.056-0.803,0.818-0.876,1.375c-0.149,1.14-2.552,6.919-3.038,8.408
			c-0.184,0.563-0.718,0.811-1.326,0.773c-0.623-0.039-0.891-0.46-1.009-1.002c-0.104-0.47-4.168-10.653,1.247-16.613
			c0.362-1.178,0.203-1.722-1.052-1.601c-0.514,0.049-0.643,0.052-1.136,0.209c-0.54,0.172-0.982,0.269-2.087,1.017
			c-1.537,0.947-2.764,3.253-3.9,6.641c-0.026,0.67-0.981,1.58-1.649,1.573c-5.876-0.055-9.407,1.65-13.294,3.834
			c-2.52,1.917-4.581,4.09-4.655,7.472c-0.093,4.246,0.038,8.487,0.173,12.729c0.029,0.904,0.499,5.137,0.928,6.338
			c0.232,0.649,0.037,1.15-0.498,1.587c-0.921,0.75-5.772,3.531-5.73,9.877c0.039,5.831,5.95,8.28,7.086,11.516
			c2.676,7.616,0.783,8.93,0.376,11.276c-1.436,3.023-1.343,6.27,0.269,9.903c3.144,7.066,4.235,21.98,4.861,25.068
			c0.496,2.45,0.892,4.888-0.669,6.479c-0.237,0.241-3.461,0.813-4.33,0.987c-2.142,0.43-4.599-2.013-4.467-3.994
			c0.164-2.452-2.062-14.624-6.494-24.546c-0.921-2.109-2.21-3.186-6.656-4.444c-1.627-0.575-5.411,0.047-7.506-0.335
			c-1.243-0.426-1.975-1.411-2.463-2.737C8.655,77.928,30.396,42.852,31.349,41.3c0.478-0.779,0.682-1.712,1.256-2.469
			c0.197-0.26,0.197-0.625,0.168-0.958c-0.021-0.251-0.09-0.479-0.379-0.55c-0.238-0.058-0.476,0.033-0.555,0.225
			C31.482,38.416,4.857,75.424,4.006,76.377c-4.254,6.214-1.066,9.557,0.019,10.243c1.158,0.732,2.426,1.249,3.626,1.885
			c0.889,0.472,1.741,0.827,2.735,0.914c0.504,0.044,0.998,0.184,1.177,0.714c0.188,0.558,0.026,1.05-0.403,1.475
			c-2.612,2.291-8.159,14.707-8.219,14.841c-0.612,1.352-2.359,7.499-2.75,9.19c-0.142,0.616-0.19,1.241-0.191,1.871
			c-0.002,0.882,0.43,1.476,1.326,1.545c1.618,0.125,3.245,0.238,4.866,0.035c0.895-0.112,1.398-0.643,1.553-1.527
			c0.177-1.016,2.843-19.438,10.476-24.157c12.497-6.492,5.818,29.258,17.271,29.258c8.413-0.719,12.017-4.866,11.468-6.238
			c-2.43-6.06-2.04-33.103-2.059-35.099c0.263-2.236,5.397-2.932,6.284-2.189c0.667,0.248,1.078,8.53,1.118,8.854
			c0.69,5.57,1.216,18.258,1.289,19.481c0.062,1.055,1.573,2.187,2.51,2.244c2.108,0.129,6.789,0.003,7.461,0.022
			c1.241,0.036,3.615-0.718,3.837-2.608c0.042-0.866,1.253-22.929,1.346-25.559c1.212-3.634,6.032-3.648,9.041-1.36
			c1.966,4.667,5.281,10.636-4.207,28.016c-2.379,8.044,2.396,12.102,5.896,12.102c0,0.008,6.863,2.109,12.159-4.039
			c0.332-0.899,6.861-11.39,9.104-15.092c0.673-1.112,4.781-5.88,6.196-6.981c0.586-0.456,1.125-0.319,1.616,0.211
			c0.635,0.687,5.991,11.917,6.67,13.696c0.975,2.556,1.425,4.558-0.342,6.441c-0.665,0.71-1.168,1.518-1.245,2.54
			c-0.103,1.352,0.262,1.901,1.631,1.921c2.485,0.035,4.973-0.014,7.458-0.056c1.085-0.019,1.719-0.6,2.062-1.606
			C125.107,116.405,125.027,115.498,124.79,114.546z M45.482,16.953c1.388-0.75,6.539-3.061,7.431-3.444
			c1.227-0.526,2.061-0.14,2.153,1.017c0.084,1.056,1.493,6.064,1.664,7.156c0.181,1.157-0.338,1.493-1.525,1.5
			c-6.1,0.271-10.888,2.474-11.865,3.333c-0.385,0.338-0.718,0.666-1.275,0.477C41.446,26.783,38.366,21.18,45.482,16.953z
			 M65.69,97.287c0.017,2.63-0.046,5.262-0.11,7.891c-0.057,2.339-0.822,3.038-3.162,2.989c-0.184-0.004-3.307,0.007-4.798,0.061
			c-1.658,0-1.303-1.332-1.612-2.101c-0.153-0.382-1.507-26.806-1.729-28.442c-0.105-0.775,0.343-1.173,1.137-1.183
			c4.852,0.277,8.877-0.084,10.214-0.249c0.922-0.113,1.468,0.335,1.395,1.236C66.783,80.515,65.67,93.969,65.69,97.287z"/>
		<path fill-rule="evenodd" clip-rule="evenodd" fill="#B2372D" d="M54.5,64.835c0.541,0.431-0.265-2.917,0.994-3.425
			c0.93-0.376,6.968-0.991,9.15-0.778c2.44,0.239,3.111,1.128,4.147,1.523c1.074,0.411,1.594,0.054,1.6-1.051
			c0.004-0.597-0.022-1.193-0.024-1.791c-0.001-0.407-0.128-0.755-0.423-1.054c-0.826-0.841-1.595-1.74-2.474-2.524
			c-1.327-1.184-2.679-2.39-4.557-2.667c-1.088-0.16-2.196-0.203-3.294-0.299c-1.233,0.044-2.454,0.085-3.643,0.454
			c-1.513,0.47-2.615,1.706-2.562,3.004c0.038,0.897,0.395,1.473,0.951,2.068c0.101,0.109,2.368-2.395,10.106-0.913
			c0.469,0.09,0.986,0.205,1.132,0.271c1.274,0.564,1.55,0.959-1.215,0.564c-6.315-0.637-9.963,1.039-10.298,1.202
			c-0.471,0.23-0.963,0.458-1.08,1.021c-0.223,1.062-0.188,1.278,0.027,2.346C53.2,63.59,53.728,64.222,54.5,64.835z"/>
		<path fill-rule="evenodd" clip-rule="evenodd" fill="#B2372D" d="M54.727,49.994c0.384,0.598,1.027,0.72,1.698,0.687
			c0.571-0.029,1.063-0.259,1.464-0.666c0.761-0.77,1.546-2.766,2.119-3.727c0.625-1.049,6.09,3.289,6.228,5.09
			c0.024,0.315,0.357,0.557,0.755,0.528c0.433-0.031,0.67-0.317,0.748-0.686c0.198-0.945,0.061-1.841-0.542-2.639
			c-0.849-1.126-1.632-2.309-2.56-3.37c-1.174-1.341-2.208-2.967-4.05-2.838c-1.619,0.031-2.929,0.109-3.453,1.45
			c-0.612,1.566-1.516,2.978-2.243,4.48C54.617,48.869,54.355,49.415,54.727,49.994z"/>
		<path fill-rule="evenodd" clip-rule="evenodd" fill="#B2372D" d="M70.754,39.272c0.492,2.267,3.786,2.882,5.573,1.391
			c0.899-0.75,1.02-0.791,1.818,0.01c1.594,1.602,2.872,1.989,5.014,2.712c1.076-5.295-0.522-10.381-7.473-13.605
			c-0.338-0.157-2.993-1.297-6.592-0.396c-0.208,0.052-0.39,0.179-0.572,0.288c-0.324,0.194-0.607,0.437-0.569,0.852
			c0.038,0.421,0.366,0.591,0.73,0.715c0.411,0.139,0.833,0.194,1.266,0.206c0.768,0.022,1.534,0.051,2.3,0.094
			c0.268,0.015,1.035,0.205,0.716,0.287c-4.345,1.119-5.91,4.963-6.88,6.988c-0.244,0.508-0.463,0.967-0.008,1.374
			c0.759,0.679,1.655,1.134,2.724,1.141c0.281,0.002,0.569-0.044,0.695-0.339c0.114-0.271-0.082-0.457-0.25-0.626
			c-0.33-0.331-0.491-0.703-0.266-1.137c0.31-0.599,0.669-0.985,1.062-0.986C70.54,38.24,70.642,38.756,70.754,39.272z"/>
		<path fill-rule="evenodd" clip-rule="evenodd" fill="#B2372D" d="M51.67,32.24c0.611,0.005,1.223,0.024,1.834,0.049
			c0.345,0.015,0.685-0.014,1.021-0.127c0.3-0.1,0.574-0.25,0.64-0.667c0.064-0.41-0.142-0.67-0.382-0.884
			c-0.136-0.12-0.271-0.258-0.431-0.323c-2.783-1.121-4.985-0.15-5.266-0.014c-5.784,2.783-7.47,7.753-7.05,13.098
			c1.76-0.588,2.806-0.895,4.204-2.393c0.699-0.749,0.792-0.701,1.443,0.103c1.297,1.598,3.963,1.188,4.539-1.041
			c0.13-0.507,0.255-1.016,0.651-0.984c0.311,0.025,0.564,0.433,0.762,1.049c0.143,0.447-0.015,0.808-0.305,1.117
			c-0.148,0.158-0.318,0.332-0.25,0.608c0.075,0.302,0.301,0.365,0.524,0.381c0.85,0.06,1.598-0.339,2.256-0.969
			c0.394-0.377,0.258-0.848,0.106-1.369c-0.604-2.079-1.531-6.008-4.889-7.392C50.832,32.38,51.457,32.238,51.67,32.24z"/>
	</g>
	<g>
		<path fill="#FFFFFF" d="M115.432,41.803h7.754v11.429c0,0.444,0.521,0.889,0.978,0.889h0.131c0.456,0,0.847-0.381,0.912-0.698
			V41.105c0-0.508-0.261-1.143-0.782-1.46l-5.735-4c-2.279-1.333-3.257-3.81-3.257-6.222v-8.571c0-5.08,3.714-8.19,8.08-8.19h1.759
			c4.236,0,7.755,2.793,7.755,5.905v10.095h-7.819V17.359c0-0.444-0.456-0.889-0.912-0.889h-0.131c-0.457,0-0.848,0.381-0.978,0.762
			v11.873c0,0.635,0.326,1.206,0.913,1.523l5.538,3.746c1.955,1.207,3.389,2.984,3.389,6.222v9.207c0,5.016-3.714,8.19-8.08,8.19
			h-1.76c-4.3,0-7.754-2.793-7.754-5.968V41.803z"/>
		<path fill="#FFFFFF" d="M134.978,12.661h12.12c2.933,0,5.409,2.73,5.409,5.905v16.381c0,3.174-2.477,5.905-5.343,5.905h-4.433
			v17.206h-7.754V12.661z M143.775,37.042c0.456,0,0.977-0.508,0.977-0.889V17.359c0-0.381-0.521-0.889-0.977-0.889h-1.044v20.571
			H143.775z"/>
		<path fill="#FFFFFF" d="M154.46,12.661h7.754v18.667h2.021V12.661h7.755v45.396h-7.755v-22.92h-2.021v22.92h-7.754V12.661z"/>
		<path fill="#FFFFFF" d="M173.941,12.661h7.755v45.396h-7.755V12.661z"/>
		<path fill="#FFFFFF" d="M183.648,12.661h7.756l3.323,23.428V12.661h7.754v45.396h-7.754l-3.323-23.365v23.365h-7.756V12.661z"/>
		<path fill="#FFFFFF" d="M209.777,35.454l-5.801-22.793h8.081l2.606,14.73l2.737-14.73h8.08l-5.799,22.793l5.799,22.603h-8.08
			l-2.737-14.984l-2.606,14.984h-8.081L209.777,35.454z"/>
	</g>
	<path fill-rule="evenodd" clip-rule="evenodd" fill="#B2372D" d="M126.653,119.337H226V63.873H117.729
		c3.561,5.865,6.331,10.501,6.638,11.183c0.398,0.883,4.443,6.398,3.112,6.971c-6.003,2.572-11.361,9.279-10.604,10.059
		c5.506,5.662,10.037,20.467,10.708,23.168c0.238,0.951,0.319,1.859-0.008,2.818C127.379,118.647,127.071,119.065,126.653,119.337z"
		/>
	<g>
		<path fill="#FFFFFF" d="M151.756,72.056h10.781c2.607,0,4.81,2.428,4.81,5.252v14.57c0,2.823-2.202,5.252-4.752,5.252h-3.942
			v15.304h-6.896V72.056z M159.58,93.741c0.406,0,0.87-0.451,0.87-0.791V76.234c0-0.339-0.464-0.79-0.87-0.79h-0.928v18.297H159.58z
			"/>
		<path fill="#FFFFFF" d="M169.086,72.056h6.897v35.295h6.665v5.083h-13.562V72.056z"/>
		<path fill="#FFFFFF" d="M184.389,72.056h6.896v36.199c0,0.395,0.348,0.791,0.811,0.791h0.175c0.405,0,0.812-0.396,0.812-0.791
			V72.056h6.896v35.069c0,2.823-2.26,5.309-4.81,5.309h-5.681c-2.608,0-5.1-2.485-5.1-5.309V72.056z"/>
		<path fill="#FFFFFF" d="M201.718,97.977h6.897v10.165c0,0.396,0.463,0.791,0.87,0.791h0.115c0.406,0,0.754-0.34,0.811-0.621
			V97.355c0-0.452-0.23-1.017-0.695-1.299l-5.1-3.558c-2.028-1.186-2.898-3.389-2.898-5.535v-7.623c0-4.518,3.304-7.285,7.188-7.285
			h1.564c3.769,0,6.897,2.484,6.897,5.252v8.979h-6.956V76.234c0-0.396-0.404-0.79-0.811-0.79h-0.115
			c-0.407,0-0.754,0.338-0.87,0.678v10.561c0,0.564,0.29,1.072,0.812,1.354l4.926,3.332c1.739,1.073,3.014,2.654,3.014,5.534v8.189
			c0,4.461-3.304,7.284-7.187,7.284h-1.565c-3.824,0-6.897-2.485-6.897-5.308V97.977z"/>
	</g>
</g>
</svg>
